<svg xmlns="http://www.w3.org/2000/svg" viewBox="0 0 31.22 31"><path d="M31.19 14.22A15 15 0 0025.5 3.41 15.7 15.7 0 0019.97.58a14.92 14.92 0 00-11.88 1.6 16.8 16.8 0 00-7.21 9.2 16.92 16.92 0 00-.87 5.91 14.78 14.78 0 001.45 5.91 13.84 13.84 0 009.39 7.44 16.26 16.26 0 006 .15 18.2 18.2 0 005.55-1.87 17.76 17.76 0 004.65-3.56 16.21 16.21 0 003.22-5.06 14.35 14.35 0 00.92-6.08zm-9.38-2.49a85.81 85.81 0 00.9 10.85c-1 .67-2.1 1.38-3.23 2.09-.32-3.54-.55-7.24-.67-11v-.46l-.4.22-1.55.88-.15.08v.17c.14 4.16.32 8 .58 11.58l-1.91 1c-.63-.28-1.28-.59-1.91-.9.29-3.69.49-7.53.65-11.72v-.17l-.15-.09-1.65-.92-.41-.23v.47c-.06 3.77-.24 7.57-.53 11.32-1-.61-2-1.27-3.2-2.07a91.53 91.53 0 00.77-11.33v-.17l-.15-.08c-.48-.27-.95-.53-1.43-.77V7.5c.84-.07 1.7-.12 2.55-.15.08.65.16 1.31.23 2v.26h1.58v-.28c0-.69.06-1.39.08-2.08.84 0 1.7-.07 2.54-.07 0 .7.07 1.41.11 2.12v.28h1.67l.07-2.5c.92 0 1.85.07 2.77.15-.05.78-.09 1.55-.13 2.33v.27h.27l1.35.11h.3v-.25c0-.67.06-1.34.09-2 .86.07 1.72.16 2.57.27 0 1 0 1.92.05 2.86-.52.2-1 .41-1.55.63l-.18.08z" fill="#09f"/></svg>