<svg xmlns="http://www.w3.org/2000/svg" viewBox="0 0 31.04 31" fill="#09f"><path d="M31.01 14.22a15.37 15.37 0 00-1.69-6 15.06 15.06 0 00-3.95-4.81A15.54 15.54 0 0019.84.58a14.73 14.73 0 00-11.8 1.6 16.79 16.79 0 00-7.18 9.2 16.9 16.9 0 00-.85 5.91 14.94 14.94 0 001.44 5.91A14 14 0 005.32 28a13.79 13.79 0 005.49 2.64 16 16 0 005.94.15 18.05 18.05 0 005.51-1.87 17.76 17.76 0 004.65-3.56 16.12 16.12 0 003.19-5.06 14.33 14.33 0 00.91-6.08zm-6.78-2.85v5.32a10 10 0 01-3.1 7.13 12.79 12.79 0 01-3.19 2.32 7 7 0 01-2 .67 3.14 3.14 0 01-1.29-.12 9.56 9.56 0 01-3.58-1.92 10.82 10.82 0 01-2.77-3 10.13 10.13 0 01-1.49-5.27V7.7c0-.12 0-.12.1-.14l1.9-.35 1-.19 2.84-.52 1.62-.3.36-.07A5 5 0 0115.4 6h.12a2.1 2.1 0 01.43 0l2 .38 1.22.23.35.06 4.47.83c.14 0 .14 0 .14.15v3.67z"/><path d="M22.34 13.32V9.5a.35.35 0 00-.29-.4l-1.37-.25-.66-.13-.81-.22c-1.07-.21-2.14-.41-3.21-.59a2.49 2.49 0 00-.77 0 5.1 5.1 0 00-1 .16l-.39.08-1.1.21-3.75.69a.39.39 0 00-.36.4v7a8.28 8.28 0 003.1 6.46 9.49 9.49 0 002.79 1.79h.08a2.76 2.76 0 00.94.23 1.34 1.34 0 00.4-.06h.13a6 6 0 00.84-.3 10.36 10.36 0 002.85-2.07 8.16 8.16 0 002.57-5.76v-3.42zm-5.88-1.82v11.34c0 .13 0 .17-.14.22l-.17.07c-.63.27-.63.27-1.2 0l-.22-.07c-.1 0-.14-.07-.14-.21v-10.9c0-.16 0-.27-.09-.35a.19.19 0 00-.16 0 .67.67 0 00-.2 0c-.68.11-1.24.22-1.76.32-.15 0-.22.19-.24.23a.61.61 0 000 .19v8.85a6.65 6.65 0 01-1.79-3.57 6 6 0 01-.07-.95V10.5c0-.09 0-.09.1-.11l1.55-.33 3.45-.56a1.53 1.53 0 01.52 0h.09l2.22.41 1.09.2 1.36.25c.1 0 .11 0 .11.13v6.09a6.41 6.41 0 01-1.86 4.51V12.4c0-.36-.05-.42-.4-.49l-1.36-.29-.36-.06h-.11z"/></svg>